<svg fill="#000000" xmlns="http://www.w3.org/2000/svg"  viewBox="0 0 24 24" width="48px" height="48px"><path d="M 12 4 C 12 4 5.6992188 4.0003906 4.1992188 4.4003906 C 3.2992187 4.6003906 2.6003906 5.2992187 2.4003906 6.1992188 C 2.0003906 7.6992188 2 12 2 12 C 2 12 2.0003906 16.300781 2.4003906 17.800781 C 2.6003906 18.700781 3.2992187 19.299609 4.1992188 19.599609 C 5.6992188 19.999609 12 20 12 20 C 12 20 18.300781 19.999609 19.800781 19.599609 C 20.700781 19.399609 21.299609 18.700781 21.599609 17.800781 C 21.999609 16.300781 22 12 22 12 C 22 12 21.999609 7.6992187 21.599609 6.1992188 C 21.399609 5.2992187 20.700781 4.7003906 19.800781 4.4003906 C 18.300781 4.0003906 12 4 12 4 z M 12 6 C 14.9 6 18.500781 6.1007813 19.300781 6.3007812 C 19.500781 6.3007812 19.599219 6.4992187 19.699219 6.6992188 C 19.899219 7.5992187 20 10.3 20 12 C 20 13.7 19.899609 16.400781 19.599609 17.300781 C 19.599609 17.500781 19.399219 17.599219 19.199219 17.699219 C 18.499219 17.899219 14.9 18 12 18 C 9.1 18 5.4992187 17.899609 4.6992188 17.599609 C 4.4992187 17.599609 4.4007813 17.399219 4.3007812 17.199219 C 4.1007812 16.399219 4 13.7 4 12 C 4 10.3 4.1007813 7.5992187 4.3007812 6.6992188 C 4.3007812 6.4992187 4.4992187 6.4007813 4.6992188 6.3007812 C 5.4992187 6.1007812 9.1 6 12 6 z M 10 8.5 L 10 15.5 L 16 12 L 10 8.5 z"/></svg>